<mxfile host="65bd71144e" modified="2021-03-04T16:57:23.004Z" agent="5.0 (Macintosh; Intel Mac OS X 11_2_1) AppleWebKit/537.36 (KHTML, like Gecko) Code/1.53.2 Chrome/87.0.4280.141 Electron/11.2.1 Safari/537.36" version="14.2.4" etag="T0klgkxy4aW28MLgG1QH" type="embed" pages="5">
    <diagram id="36k4UEzFlJ-I97TlE2hA" name="Main Page">
        <mxGraphModel dx="1371" dy="1652" grid="1" gridSize="10" guides="1" tooltips="1" connect="1" arrows="1" fold="1" page="1" pageScale="1" pageWidth="850" pageHeight="1100" math="0" shadow="0">
            <root>
                <mxCell id="0"/>
                <mxCell id="1" parent="0"/>
                <mxCell id="2" value="Home Page (https://www.beatlesstory.com/news/)" style="rounded=1;whiteSpace=wrap;html=1;" vertex="1" parent="1">
                    <mxGeometry x="-500" y="330" width="240" height="60" as="geometry"/>
                </mxCell>
                <mxCell id="3" style="edgeStyle=orthogonalEdgeStyle;rounded=0;orthogonalLoop=1;jettySize=auto;html=1;" edge="1" parent="1" source="4" target="2">
                    <mxGeometry relative="1" as="geometry"/>
                </mxCell>
                <mxCell id="4" value="About" style="rhombus;whiteSpace=wrap;html=1;" vertex="1" parent="1">
                    <mxGeometry x="-420" y="200" width="80" height="80" as="geometry"/>
                </mxCell>
                <mxCell id="5" style="edgeStyle=orthogonalEdgeStyle;rounded=0;orthogonalLoop=1;jettySize=auto;html=1;entryX=0.5;entryY=0;entryDx=0;entryDy=0;" edge="1" parent="1" source="6" target="16">
                    <mxGeometry relative="1" as="geometry"/>
                </mxCell>
                <mxCell id="6" value="Homepage" style="rounded=1;whiteSpace=wrap;html=1;" vertex="1" parent="1">
                    <mxGeometry x="-250" y="-210" width="120" height="60" as="geometry"/>
                </mxCell>
                <mxCell id="7" style="edgeStyle=orthogonalEdgeStyle;rounded=0;orthogonalLoop=1;jettySize=auto;html=1;entryX=0.5;entryY=0;entryDx=0;entryDy=0;" edge="1" parent="1" source="8" target="10">
                    <mxGeometry relative="1" as="geometry"/>
                </mxCell>
                <mxCell id="8" value="Shop" style="rhombus;whiteSpace=wrap;html=1;" vertex="1" parent="1">
                    <mxGeometry x="110" y="200" width="80" height="80" as="geometry"/>
                </mxCell>
                <mxCell id="9" value="" style="edgeStyle=orthogonalEdgeStyle;rounded=0;orthogonalLoop=1;jettySize=auto;html=1;" edge="1" parent="1" source="10" target="11">
                    <mxGeometry relative="1" as="geometry"/>
                </mxCell>
                <mxCell id="10" value="Drop Category Menu" style="whiteSpace=wrap;html=1;" vertex="1" parent="1">
                    <mxGeometry x="90" y="330" width="120" height="60" as="geometry"/>
                </mxCell>
                <mxCell id="11" value="Link to Product Page" style="rhombus;whiteSpace=wrap;html=1;" vertex="1" parent="1">
                    <mxGeometry x="90" y="420" width="120" height="110" as="geometry"/>
                </mxCell>
                <mxCell id="12" value="https://www.beatlesstory.com/events/" style="rounded=1;whiteSpace=wrap;html=1;" vertex="1" parent="1">
                    <mxGeometry x="-210" y="330" width="240" height="60" as="geometry"/>
                </mxCell>
                <mxCell id="13" style="edgeStyle=orthogonalEdgeStyle;rounded=0;orthogonalLoop=1;jettySize=auto;html=1;entryX=0;entryY=0.5;entryDx=0;entryDy=0;" edge="1" parent="1" source="14" target="6">
                    <mxGeometry relative="1" as="geometry">
                        <mxPoint x="-680" y="-160" as="targetPoint"/>
                        <Array as="points">
                            <mxPoint x="-630" y="240"/>
                            <mxPoint x="-630" y="-180"/>
                        </Array>
                    </mxGeometry>
                </mxCell>
                <mxCell id="14" value="Logo" style="rhombus;whiteSpace=wrap;html=1;" vertex="1" parent="1">
                    <mxGeometry x="-580" y="200" width="80" height="80" as="geometry"/>
                </mxCell>
                <mxCell id="15" style="edgeStyle=orthogonalEdgeStyle;rounded=0;orthogonalLoop=1;jettySize=auto;html=1;entryX=0.5;entryY=0;entryDx=0;entryDy=0;" edge="1" parent="1" source="16" target="21">
                    <mxGeometry relative="1" as="geometry"/>
                </mxCell>
                <mxCell id="16" value="Header" style="rounded=1;whiteSpace=wrap;html=1;" vertex="1" parent="1">
                    <mxGeometry x="-250" y="-90" width="120" height="60" as="geometry"/>
                </mxCell>
                <mxCell id="17" style="edgeStyle=orthogonalEdgeStyle;rounded=0;orthogonalLoop=1;jettySize=auto;html=1;" edge="1" parent="1" source="21" target="14">
                    <mxGeometry relative="1" as="geometry"/>
                </mxCell>
                <mxCell id="18" style="edgeStyle=orthogonalEdgeStyle;rounded=0;orthogonalLoop=1;jettySize=auto;html=1;" edge="1" parent="1" source="21" target="8">
                    <mxGeometry relative="1" as="geometry">
                        <mxPoint x="-40" y="90" as="targetPoint"/>
                    </mxGeometry>
                </mxCell>
                <mxCell id="19" style="edgeStyle=orthogonalEdgeStyle;rounded=0;orthogonalLoop=1;jettySize=auto;html=1;" edge="1" parent="1" source="21" target="4">
                    <mxGeometry relative="1" as="geometry">
                        <mxPoint x="-190" y="210" as="targetPoint"/>
                        <Array as="points">
                            <mxPoint x="-190" y="170"/>
                            <mxPoint x="-380" y="170"/>
                        </Array>
                    </mxGeometry>
                </mxCell>
                <mxCell id="20" style="edgeStyle=orthogonalEdgeStyle;rounded=0;orthogonalLoop=1;jettySize=auto;html=1;" edge="1" parent="1" source="21" target="23">
                    <mxGeometry relative="1" as="geometry"/>
                </mxCell>
                <mxCell id="21" value="Navbar" style="rounded=1;whiteSpace=wrap;html=1;" vertex="1" parent="1">
                    <mxGeometry x="-270" y="60" width="160" height="80" as="geometry"/>
                </mxCell>
                <mxCell id="22" style="edgeStyle=orthogonalEdgeStyle;rounded=0;orthogonalLoop=1;jettySize=auto;html=1;entryX=0.583;entryY=0;entryDx=0;entryDy=0;entryPerimeter=0;" edge="1" parent="1" source="23" target="12">
                    <mxGeometry relative="1" as="geometry"/>
                </mxCell>
                <mxCell id="23" value="Events" style="rhombus;whiteSpace=wrap;html=1;" vertex="1" parent="1">
                    <mxGeometry x="-110" y="200" width="80" height="80" as="geometry"/>
                </mxCell>
            </root>
        </mxGraphModel>
    </diagram>
    <diagram id="3jKMHt0kfR6_q31VUtZq" name="Log In">
        <mxGraphModel dx="521" dy="552" grid="1" gridSize="10" guides="1" tooltips="1" connect="1" arrows="1" fold="1" page="1" pageScale="1" pageWidth="850" pageHeight="1100" math="0" shadow="0">
            <root>
                <mxCell id="KWo484pOxtKFuaNhNrpA-0"/>
                <mxCell id="KWo484pOxtKFuaNhNrpA-1" parent="KWo484pOxtKFuaNhNrpA-0"/>
                <mxCell id="KWo484pOxtKFuaNhNrpA-2" style="edgeStyle=orthogonalEdgeStyle;rounded=0;orthogonalLoop=1;jettySize=auto;html=1;" edge="1" parent="KWo484pOxtKFuaNhNrpA-1" source="KWo484pOxtKFuaNhNrpA-5" target="KWo484pOxtKFuaNhNrpA-7">
                    <mxGeometry relative="1" as="geometry">
                        <Array as="points">
                            <mxPoint x="420" y="160"/>
                            <mxPoint x="420" y="160"/>
                        </Array>
                    </mxGeometry>
                </mxCell>
                <mxCell id="KWo484pOxtKFuaNhNrpA-3" style="edgeStyle=orthogonalEdgeStyle;rounded=0;orthogonalLoop=1;jettySize=auto;html=1;entryX=0.5;entryY=0;entryDx=0;entryDy=0;" edge="1" parent="KWo484pOxtKFuaNhNrpA-1" source="KWo484pOxtKFuaNhNrpA-5" target="KWo484pOxtKFuaNhNrpA-6">
                    <mxGeometry relative="1" as="geometry">
                        <Array as="points">
                            <mxPoint x="420" y="160"/>
                            <mxPoint x="275" y="160"/>
                        </Array>
                    </mxGeometry>
                </mxCell>
                <mxCell id="KWo484pOxtKFuaNhNrpA-4" style="edgeStyle=orthogonalEdgeStyle;rounded=0;orthogonalLoop=1;jettySize=auto;html=1;entryX=0.5;entryY=0;entryDx=0;entryDy=0;" edge="1" parent="KWo484pOxtKFuaNhNrpA-1" source="KWo484pOxtKFuaNhNrpA-5" target="KWo484pOxtKFuaNhNrpA-9">
                    <mxGeometry relative="1" as="geometry">
                        <Array as="points">
                            <mxPoint x="420" y="160"/>
                            <mxPoint x="635" y="160"/>
                        </Array>
                    </mxGeometry>
                </mxCell>
                <mxCell id="KWo484pOxtKFuaNhNrpA-5" value="log in" style="rounded=1;whiteSpace=wrap;html=1;" vertex="1" parent="KWo484pOxtKFuaNhNrpA-1">
                    <mxGeometry x="360" y="60" width="120" height="70" as="geometry"/>
                </mxCell>
                <mxCell id="KWo484pOxtKFuaNhNrpA-6" value="google log in" style="rhombus;whiteSpace=wrap;html=1;" vertex="1" parent="KWo484pOxtKFuaNhNrpA-1">
                    <mxGeometry x="230" y="190" width="90" height="90" as="geometry"/>
                </mxCell>
                <mxCell id="KWo484pOxtKFuaNhNrpA-7" value="Facebook log in&lt;br&gt;" style="rhombus;whiteSpace=wrap;html=1;" vertex="1" parent="KWo484pOxtKFuaNhNrpA-1">
                    <mxGeometry x="372.5" y="190" width="95" height="90" as="geometry"/>
                </mxCell>
                <mxCell id="KWo484pOxtKFuaNhNrpA-8" style="edgeStyle=orthogonalEdgeStyle;rounded=0;orthogonalLoop=1;jettySize=auto;html=1;" edge="1" parent="KWo484pOxtKFuaNhNrpA-1" source="KWo484pOxtKFuaNhNrpA-9" target="KWo484pOxtKFuaNhNrpA-16">
                    <mxGeometry relative="1" as="geometry">
                        <Array as="points">
                            <mxPoint x="635" y="330"/>
                            <mxPoint x="635" y="330"/>
                        </Array>
                    </mxGeometry>
                </mxCell>
                <mxCell id="KWo484pOxtKFuaNhNrpA-9" value="User log in" style="rhombus;whiteSpace=wrap;html=1;" vertex="1" parent="KWo484pOxtKFuaNhNrpA-1">
                    <mxGeometry x="590" y="180" width="90" height="90" as="geometry"/>
                </mxCell>
                <mxCell id="KWo484pOxtKFuaNhNrpA-10" style="edgeStyle=orthogonalEdgeStyle;rounded=0;orthogonalLoop=1;jettySize=auto;html=1;" edge="1" parent="KWo484pOxtKFuaNhNrpA-1" source="KWo484pOxtKFuaNhNrpA-11">
                    <mxGeometry relative="1" as="geometry">
                        <mxPoint x="420" y="670" as="targetPoint"/>
                    </mxGeometry>
                </mxCell>
                <mxCell id="KWo484pOxtKFuaNhNrpA-11" value="redirect to facebook&lt;br&gt;log in&amp;nbsp;" style="rounded=1;whiteSpace=wrap;html=1;" vertex="1" parent="KWo484pOxtKFuaNhNrpA-1">
                    <mxGeometry x="360" y="360" width="120" height="60" as="geometry"/>
                </mxCell>
                <mxCell id="KWo484pOxtKFuaNhNrpA-12" style="edgeStyle=orthogonalEdgeStyle;rounded=0;orthogonalLoop=1;jettySize=auto;html=1;entryX=0;entryY=0.5;entryDx=0;entryDy=0;" edge="1" parent="KWo484pOxtKFuaNhNrpA-1" source="KWo484pOxtKFuaNhNrpA-13" target="KWo484pOxtKFuaNhNrpA-23">
                    <mxGeometry relative="1" as="geometry">
                        <mxPoint x="275" y="730" as="targetPoint"/>
                        <Array as="points">
                            <mxPoint x="280" y="710"/>
                        </Array>
                    </mxGeometry>
                </mxCell>
                <mxCell id="KWo484pOxtKFuaNhNrpA-13" value="redirect to google &lt;br&gt;log in" style="rounded=1;whiteSpace=wrap;html=1;" vertex="1" parent="KWo484pOxtKFuaNhNrpA-1">
                    <mxGeometry x="215" y="360" width="120" height="60" as="geometry"/>
                </mxCell>
                <mxCell id="KWo484pOxtKFuaNhNrpA-14" style="edgeStyle=orthogonalEdgeStyle;rounded=0;orthogonalLoop=1;jettySize=auto;html=1;entryX=0.438;entryY=0;entryDx=0;entryDy=0;entryPerimeter=0;" edge="1" parent="KWo484pOxtKFuaNhNrpA-1" source="KWo484pOxtKFuaNhNrpA-16" target="KWo484pOxtKFuaNhNrpA-22">
                    <mxGeometry relative="1" as="geometry">
                        <mxPoint x="510" y="500" as="targetPoint"/>
                        <Array as="points">
                            <mxPoint x="520" y="390"/>
                        </Array>
                    </mxGeometry>
                </mxCell>
                <mxCell id="KWo484pOxtKFuaNhNrpA-15" style="edgeStyle=orthogonalEdgeStyle;rounded=0;orthogonalLoop=1;jettySize=auto;html=1;entryX=0.658;entryY=0.017;entryDx=0;entryDy=0;entryPerimeter=0;" edge="1" parent="KWo484pOxtKFuaNhNrpA-1" source="KWo484pOxtKFuaNhNrpA-16" target="KWo484pOxtKFuaNhNrpA-18">
                    <mxGeometry relative="1" as="geometry">
                        <Array as="points">
                            <mxPoint x="759" y="390"/>
                        </Array>
                    </mxGeometry>
                </mxCell>
                <mxCell id="KWo484pOxtKFuaNhNrpA-16" value="Already have an acoount?" style="shape=parallelogram;perimeter=parallelogramPerimeter;whiteSpace=wrap;html=1;fixedSize=1;" vertex="1" parent="KWo484pOxtKFuaNhNrpA-1">
                    <mxGeometry x="570" y="360" width="120" height="60" as="geometry"/>
                </mxCell>
                <mxCell id="KWo484pOxtKFuaNhNrpA-17" style="edgeStyle=orthogonalEdgeStyle;rounded=0;orthogonalLoop=1;jettySize=auto;html=1;" edge="1" parent="KWo484pOxtKFuaNhNrpA-1" source="KWo484pOxtKFuaNhNrpA-18" target="KWo484pOxtKFuaNhNrpA-23">
                    <mxGeometry relative="1" as="geometry">
                        <Array as="points">
                            <mxPoint x="740" y="710"/>
                        </Array>
                    </mxGeometry>
                </mxCell>
                <mxCell id="KWo484pOxtKFuaNhNrpA-18" value="Create an acount" style="rounded=1;whiteSpace=wrap;html=1;" vertex="1" parent="KWo484pOxtKFuaNhNrpA-1">
                    <mxGeometry x="680" y="510" width="120" height="60" as="geometry"/>
                </mxCell>
                <mxCell id="KWo484pOxtKFuaNhNrpA-19" value="No" style="text;html=1;strokeColor=none;fillColor=none;align=center;verticalAlign=middle;whiteSpace=wrap;rounded=0;" vertex="1" parent="KWo484pOxtKFuaNhNrpA-1">
                    <mxGeometry x="710" y="370" width="40" height="20" as="geometry"/>
                </mxCell>
                <mxCell id="KWo484pOxtKFuaNhNrpA-20" value="Yes" style="text;html=1;strokeColor=none;fillColor=none;align=center;verticalAlign=middle;whiteSpace=wrap;rounded=0;" vertex="1" parent="KWo484pOxtKFuaNhNrpA-1">
                    <mxGeometry x="520" y="370" width="40" height="20" as="geometry"/>
                </mxCell>
                <mxCell id="KWo484pOxtKFuaNhNrpA-21" style="edgeStyle=orthogonalEdgeStyle;rounded=0;orthogonalLoop=1;jettySize=auto;html=1;entryX=1;entryY=0.5;entryDx=0;entryDy=0;" edge="1" parent="KWo484pOxtKFuaNhNrpA-1" source="KWo484pOxtKFuaNhNrpA-22" target="KWo484pOxtKFuaNhNrpA-23">
                    <mxGeometry relative="1" as="geometry">
                        <Array as="points">
                            <mxPoint x="520" y="710"/>
                        </Array>
                    </mxGeometry>
                </mxCell>
                <mxCell id="KWo484pOxtKFuaNhNrpA-22" value="Log in" style="rounded=1;whiteSpace=wrap;html=1;" vertex="1" parent="KWo484pOxtKFuaNhNrpA-1">
                    <mxGeometry x="467.5" y="510" width="120" height="60" as="geometry"/>
                </mxCell>
                <mxCell id="KWo484pOxtKFuaNhNrpA-23" value="Homepage" style="rhombus;whiteSpace=wrap;html=1;" vertex="1" parent="KWo484pOxtKFuaNhNrpA-1">
                    <mxGeometry x="380" y="670" width="80" height="80" as="geometry"/>
                </mxCell>
                <mxCell id="KWo484pOxtKFuaNhNrpA-24" value="" style="endArrow=none;dashed=1;html=1;dashPattern=1 3;strokeWidth=2;exitX=0.5;exitY=1;exitDx=0;exitDy=0;entryX=0.5;entryY=0;entryDx=0;entryDy=0;" edge="1" parent="KWo484pOxtKFuaNhNrpA-1" source="KWo484pOxtKFuaNhNrpA-6" target="KWo484pOxtKFuaNhNrpA-13">
                    <mxGeometry width="50" height="50" relative="1" as="geometry">
                        <mxPoint x="390" y="530" as="sourcePoint"/>
                        <mxPoint x="440" y="480" as="targetPoint"/>
                        <Array as="points"/>
                    </mxGeometry>
                </mxCell>
                <mxCell id="KWo484pOxtKFuaNhNrpA-25" value="" style="endArrow=none;dashed=1;html=1;dashPattern=1 3;strokeWidth=2;entryX=0.5;entryY=1;entryDx=0;entryDy=0;exitX=0.5;exitY=0;exitDx=0;exitDy=0;" edge="1" parent="KWo484pOxtKFuaNhNrpA-1" source="KWo484pOxtKFuaNhNrpA-11" target="KWo484pOxtKFuaNhNrpA-7">
                    <mxGeometry width="50" height="50" relative="1" as="geometry">
                        <mxPoint x="400" y="340" as="sourcePoint"/>
                        <mxPoint x="450" y="290" as="targetPoint"/>
                    </mxGeometry>
                </mxCell>
            </root>
        </mxGraphModel>
    </diagram>
    <diagram id="7Eh_C2LfCmKjMB5L2F8n" name="Account">
        <mxGraphModel dx="521" dy="552" grid="1" gridSize="10" guides="1" tooltips="1" connect="1" arrows="1" fold="1" page="1" pageScale="1" pageWidth="850" pageHeight="1100" math="0" shadow="0">
            <root>
                <mxCell id="RjSMKmp5k2cbNy78hrAR-0"/>
                <mxCell id="RjSMKmp5k2cbNy78hrAR-1" parent="RjSMKmp5k2cbNy78hrAR-0"/>
                <mxCell id="RjSMKmp5k2cbNy78hrAR-2" style="edgeStyle=orthogonalEdgeStyle;rounded=0;orthogonalLoop=1;jettySize=auto;html=1;entryX=0.5;entryY=0;entryDx=0;entryDy=0;" edge="1" parent="RjSMKmp5k2cbNy78hrAR-1" source="RjSMKmp5k2cbNy78hrAR-3" target="RjSMKmp5k2cbNy78hrAR-5">
                    <mxGeometry relative="1" as="geometry"/>
                </mxCell>
                <mxCell id="RjSMKmp5k2cbNy78hrAR-3" value="Create account" style="rounded=1;whiteSpace=wrap;html=1;" vertex="1" parent="RjSMKmp5k2cbNy78hrAR-1">
                    <mxGeometry x="330" y="70" width="120" height="60" as="geometry"/>
                </mxCell>
                <mxCell id="RjSMKmp5k2cbNy78hrAR-4" style="edgeStyle=orthogonalEdgeStyle;rounded=0;orthogonalLoop=1;jettySize=auto;html=1;" edge="1" parent="RjSMKmp5k2cbNy78hrAR-1" source="RjSMKmp5k2cbNy78hrAR-5">
                    <mxGeometry relative="1" as="geometry">
                        <mxPoint x="390" y="340" as="targetPoint"/>
                    </mxGeometry>
                </mxCell>
                <mxCell id="RjSMKmp5k2cbNy78hrAR-5" value="username&lt;br&gt;email&lt;br&gt;password&lt;br&gt;" style="rounded=1;whiteSpace=wrap;html=1;" vertex="1" parent="RjSMKmp5k2cbNy78hrAR-1">
                    <mxGeometry x="330" y="210" width="120" height="60" as="geometry"/>
                </mxCell>
                <mxCell id="RjSMKmp5k2cbNy78hrAR-6" style="edgeStyle=orthogonalEdgeStyle;rounded=0;orthogonalLoop=1;jettySize=auto;html=1;" edge="1" parent="RjSMKmp5k2cbNy78hrAR-1" source="RjSMKmp5k2cbNy78hrAR-8" target="RjSMKmp5k2cbNy78hrAR-12">
                    <mxGeometry relative="1" as="geometry">
                        <mxPoint x="580" y="370" as="targetPoint"/>
                    </mxGeometry>
                </mxCell>
                <mxCell id="RjSMKmp5k2cbNy78hrAR-7" style="edgeStyle=orthogonalEdgeStyle;rounded=0;orthogonalLoop=1;jettySize=auto;html=1;" edge="1" parent="RjSMKmp5k2cbNy78hrAR-1" source="RjSMKmp5k2cbNy78hrAR-8">
                    <mxGeometry relative="1" as="geometry">
                        <mxPoint x="200" y="460" as="targetPoint"/>
                    </mxGeometry>
                </mxCell>
                <mxCell id="RjSMKmp5k2cbNy78hrAR-8" value="username available" style="shape=parallelogram;perimeter=parallelogramPerimeter;whiteSpace=wrap;html=1;fixedSize=1;" vertex="1" parent="RjSMKmp5k2cbNy78hrAR-1">
                    <mxGeometry x="320" y="340" width="130" height="60" as="geometry"/>
                </mxCell>
                <mxCell id="RjSMKmp5k2cbNy78hrAR-9" value="No" style="text;html=1;strokeColor=none;fillColor=none;align=center;verticalAlign=middle;whiteSpace=wrap;rounded=0;" vertex="1" parent="RjSMKmp5k2cbNy78hrAR-1">
                    <mxGeometry x="480" y="350" width="40" height="20" as="geometry"/>
                </mxCell>
                <mxCell id="RjSMKmp5k2cbNy78hrAR-10" style="edgeStyle=orthogonalEdgeStyle;rounded=0;orthogonalLoop=1;jettySize=auto;html=1;entryX=1;entryY=0.5;entryDx=0;entryDy=0;" edge="1" parent="RjSMKmp5k2cbNy78hrAR-1" source="RjSMKmp5k2cbNy78hrAR-12" target="RjSMKmp5k2cbNy78hrAR-5">
                    <mxGeometry relative="1" as="geometry">
                        <Array as="points">
                            <mxPoint x="700" y="490"/>
                            <mxPoint x="700" y="240"/>
                        </Array>
                    </mxGeometry>
                </mxCell>
                <mxCell id="RjSMKmp5k2cbNy78hrAR-11" style="edgeStyle=orthogonalEdgeStyle;rounded=0;orthogonalLoop=1;jettySize=auto;html=1;" edge="1" parent="RjSMKmp5k2cbNy78hrAR-1" source="RjSMKmp5k2cbNy78hrAR-12">
                    <mxGeometry relative="1" as="geometry">
                        <mxPoint x="570" y="580" as="targetPoint"/>
                    </mxGeometry>
                </mxCell>
                <mxCell id="RjSMKmp5k2cbNy78hrAR-12" value="username already exists" style="rounded=1;whiteSpace=wrap;html=1;" vertex="1" parent="RjSMKmp5k2cbNy78hrAR-1">
                    <mxGeometry x="510" y="460" width="120" height="60" as="geometry"/>
                </mxCell>
                <mxCell id="RjSMKmp5k2cbNy78hrAR-13" value="Yes" style="text;html=1;strokeColor=none;fillColor=none;align=center;verticalAlign=middle;whiteSpace=wrap;rounded=0;" vertex="1" parent="RjSMKmp5k2cbNy78hrAR-1">
                    <mxGeometry x="240" y="350" width="40" height="20" as="geometry"/>
                </mxCell>
                <mxCell id="RjSMKmp5k2cbNy78hrAR-14" style="edgeStyle=orthogonalEdgeStyle;rounded=0;orthogonalLoop=1;jettySize=auto;html=1;" edge="1" parent="RjSMKmp5k2cbNy78hrAR-1" source="RjSMKmp5k2cbNy78hrAR-16" target="RjSMKmp5k2cbNy78hrAR-5">
                    <mxGeometry relative="1" as="geometry">
                        <Array as="points">
                            <mxPoint x="50" y="490"/>
                            <mxPoint x="50" y="240"/>
                        </Array>
                    </mxGeometry>
                </mxCell>
                <mxCell id="RjSMKmp5k2cbNy78hrAR-15" style="edgeStyle=orthogonalEdgeStyle;rounded=0;orthogonalLoop=1;jettySize=auto;html=1;" edge="1" parent="RjSMKmp5k2cbNy78hrAR-1" source="RjSMKmp5k2cbNy78hrAR-16">
                    <mxGeometry relative="1" as="geometry">
                        <mxPoint x="370" y="620" as="targetPoint"/>
                    </mxGeometry>
                </mxCell>
                <mxCell id="RjSMKmp5k2cbNy78hrAR-16" value="email correct?" style="shape=parallelogram;perimeter=parallelogramPerimeter;whiteSpace=wrap;html=1;fixedSize=1;" vertex="1" parent="RjSMKmp5k2cbNy78hrAR-1">
                    <mxGeometry x="140" y="460" width="120" height="60" as="geometry"/>
                </mxCell>
                <mxCell id="RjSMKmp5k2cbNy78hrAR-17" value="No" style="text;html=1;strokeColor=none;fillColor=none;align=center;verticalAlign=middle;whiteSpace=wrap;rounded=0;" vertex="1" parent="RjSMKmp5k2cbNy78hrAR-1">
                    <mxGeometry x="80" y="470" width="40" height="20" as="geometry"/>
                </mxCell>
                <mxCell id="RjSMKmp5k2cbNy78hrAR-18" value="Yes&lt;br&gt;" style="text;html=1;strokeColor=none;fillColor=none;align=center;verticalAlign=middle;whiteSpace=wrap;rounded=0;" vertex="1" parent="RjSMKmp5k2cbNy78hrAR-1">
                    <mxGeometry x="290" y="470" width="40" height="20" as="geometry"/>
                </mxCell>
                <mxCell id="RjSMKmp5k2cbNy78hrAR-19" style="edgeStyle=orthogonalEdgeStyle;rounded=0;orthogonalLoop=1;jettySize=auto;html=1;" edge="1" parent="RjSMKmp5k2cbNy78hrAR-1" source="RjSMKmp5k2cbNy78hrAR-20">
                    <mxGeometry relative="1" as="geometry">
                        <mxPoint x="370" y="790" as="targetPoint"/>
                    </mxGeometry>
                </mxCell>
                <mxCell id="RjSMKmp5k2cbNy78hrAR-20" value="account created" style="rounded=1;whiteSpace=wrap;html=1;" vertex="1" parent="RjSMKmp5k2cbNy78hrAR-1">
                    <mxGeometry x="310" y="620" width="120" height="60" as="geometry"/>
                </mxCell>
                <mxCell id="RjSMKmp5k2cbNy78hrAR-21" value="Homepage" style="rhombus;whiteSpace=wrap;html=1;" vertex="1" parent="RjSMKmp5k2cbNy78hrAR-1">
                    <mxGeometry x="330" y="790" width="80" height="80" as="geometry"/>
                </mxCell>
                <mxCell id="RjSMKmp5k2cbNy78hrAR-22" style="edgeStyle=orthogonalEdgeStyle;rounded=0;orthogonalLoop=1;jettySize=auto;html=1;" edge="1" parent="RjSMKmp5k2cbNy78hrAR-1" source="RjSMKmp5k2cbNy78hrAR-24">
                    <mxGeometry relative="1" as="geometry">
                        <mxPoint x="570" y="720" as="targetPoint"/>
                    </mxGeometry>
                </mxCell>
                <mxCell id="RjSMKmp5k2cbNy78hrAR-23" style="edgeStyle=orthogonalEdgeStyle;rounded=0;orthogonalLoop=1;jettySize=auto;html=1;" edge="1" parent="RjSMKmp5k2cbNy78hrAR-1" source="RjSMKmp5k2cbNy78hrAR-24">
                    <mxGeometry relative="1" as="geometry">
                        <mxPoint x="700" y="240" as="targetPoint"/>
                        <Array as="points">
                            <mxPoint x="760" y="615"/>
                            <mxPoint x="760" y="240"/>
                        </Array>
                    </mxGeometry>
                </mxCell>
                <mxCell id="RjSMKmp5k2cbNy78hrAR-24" value="is this your username?" style="shape=parallelogram;perimeter=parallelogramPerimeter;whiteSpace=wrap;html=1;fixedSize=1;" vertex="1" parent="RjSMKmp5k2cbNy78hrAR-1">
                    <mxGeometry x="510" y="585" width="120" height="60" as="geometry"/>
                </mxCell>
                <mxCell id="RjSMKmp5k2cbNy78hrAR-25" value="No" style="text;html=1;strokeColor=none;fillColor=none;align=center;verticalAlign=middle;whiteSpace=wrap;rounded=0;" vertex="1" parent="RjSMKmp5k2cbNy78hrAR-1">
                    <mxGeometry x="640" y="590" width="40" height="20" as="geometry"/>
                </mxCell>
                <mxCell id="RjSMKmp5k2cbNy78hrAR-26" value="forgot&lt;br&gt;password" style="rhombus;whiteSpace=wrap;html=1;" vertex="1" parent="RjSMKmp5k2cbNy78hrAR-1">
                    <mxGeometry x="530" y="720" width="80" height="80" as="geometry"/>
                </mxCell>
                <mxCell id="RjSMKmp5k2cbNy78hrAR-27" value="Yes" style="text;html=1;strokeColor=none;fillColor=none;align=center;verticalAlign=middle;whiteSpace=wrap;rounded=0;" vertex="1" parent="RjSMKmp5k2cbNy78hrAR-1">
                    <mxGeometry x="530" y="670" width="40" height="20" as="geometry"/>
                </mxCell>
            </root>
        </mxGraphModel>
    </diagram>
    <diagram id="r4C1swfN1XdioG3QbMqB" name="Products">
        <mxGraphModel dx="521" dy="552" grid="1" gridSize="10" guides="1" tooltips="1" connect="1" arrows="1" fold="1" page="1" pageScale="1" pageWidth="850" pageHeight="1100" math="0" shadow="0">
            <root>
                <mxCell id="pC11YEMDaKkjjGAFoK7q-0"/>
                <mxCell id="pC11YEMDaKkjjGAFoK7q-1" parent="pC11YEMDaKkjjGAFoK7q-0"/>
                <mxCell id="pC11YEMDaKkjjGAFoK7q-2" style="edgeStyle=orthogonalEdgeStyle;rounded=0;orthogonalLoop=1;jettySize=auto;html=1;" edge="1" parent="pC11YEMDaKkjjGAFoK7q-1" source="pC11YEMDaKkjjGAFoK7q-3" target="pC11YEMDaKkjjGAFoK7q-6">
                    <mxGeometry relative="1" as="geometry"/>
                </mxCell>
                <mxCell id="pC11YEMDaKkjjGAFoK7q-3" value="Link to Product Page" style="rhombus;whiteSpace=wrap;html=1;" vertex="1" parent="pC11YEMDaKkjjGAFoK7q-1">
                    <mxGeometry x="340" y="100" width="120" height="110" as="geometry"/>
                </mxCell>
                <mxCell id="pC11YEMDaKkjjGAFoK7q-4" style="edgeStyle=orthogonalEdgeStyle;rounded=0;orthogonalLoop=1;jettySize=auto;html=1;entryX=0.5;entryY=0;entryDx=0;entryDy=0;" edge="1" parent="pC11YEMDaKkjjGAFoK7q-1" source="pC11YEMDaKkjjGAFoK7q-6" target="pC11YEMDaKkjjGAFoK7q-8">
                    <mxGeometry relative="1" as="geometry"/>
                </mxCell>
                <mxCell id="pC11YEMDaKkjjGAFoK7q-5" style="edgeStyle=orthogonalEdgeStyle;rounded=0;orthogonalLoop=1;jettySize=auto;html=1;" edge="1" parent="pC11YEMDaKkjjGAFoK7q-1" source="pC11YEMDaKkjjGAFoK7q-6">
                    <mxGeometry relative="1" as="geometry">
                        <mxPoint x="200" y="270" as="targetPoint"/>
                    </mxGeometry>
                </mxCell>
                <mxCell id="pC11YEMDaKkjjGAFoK7q-6" value="Product Page" style="rounded=1;whiteSpace=wrap;html=1;" vertex="1" parent="pC11YEMDaKkjjGAFoK7q-1">
                    <mxGeometry x="340" y="240" width="120" height="60" as="geometry"/>
                </mxCell>
                <mxCell id="pC11YEMDaKkjjGAFoK7q-7" style="edgeStyle=orthogonalEdgeStyle;rounded=0;orthogonalLoop=1;jettySize=auto;html=1;" edge="1" parent="pC11YEMDaKkjjGAFoK7q-1" source="pC11YEMDaKkjjGAFoK7q-10">
                    <mxGeometry relative="1" as="geometry">
                        <mxPoint x="400" y="550" as="targetPoint"/>
                    </mxGeometry>
                </mxCell>
                <mxCell id="pC11YEMDaKkjjGAFoK7q-8" value="Add item to cart&lt;br&gt;" style="rounded=1;whiteSpace=wrap;html=1;" vertex="1" parent="pC11YEMDaKkjjGAFoK7q-1">
                    <mxGeometry x="340" y="340" width="120" height="60" as="geometry"/>
                </mxCell>
                <mxCell id="pC11YEMDaKkjjGAFoK7q-9" style="edgeStyle=orthogonalEdgeStyle;rounded=0;orthogonalLoop=1;jettySize=auto;html=1;entryX=1;entryY=0.5;entryDx=0;entryDy=0;" edge="1" parent="pC11YEMDaKkjjGAFoK7q-1" source="pC11YEMDaKkjjGAFoK7q-10" target="pC11YEMDaKkjjGAFoK7q-3">
                    <mxGeometry relative="1" as="geometry">
                        <mxPoint x="530" y="160" as="targetPoint"/>
                        <Array as="points">
                            <mxPoint x="530" y="475"/>
                            <mxPoint x="530" y="155"/>
                        </Array>
                    </mxGeometry>
                </mxCell>
                <mxCell id="pC11YEMDaKkjjGAFoK7q-10" value="More products&lt;br&gt;" style="rhombus;whiteSpace=wrap;html=1;" vertex="1" parent="pC11YEMDaKkjjGAFoK7q-1">
                    <mxGeometry x="350" y="430" width="100" height="90" as="geometry"/>
                </mxCell>
                <mxCell id="pC11YEMDaKkjjGAFoK7q-11" style="edgeStyle=orthogonalEdgeStyle;rounded=0;orthogonalLoop=1;jettySize=auto;html=1;" edge="1" parent="pC11YEMDaKkjjGAFoK7q-1" source="pC11YEMDaKkjjGAFoK7q-8" target="pC11YEMDaKkjjGAFoK7q-10">
                    <mxGeometry relative="1" as="geometry">
                        <mxPoint x="400" y="600" as="targetPoint"/>
                        <mxPoint x="400" y="400" as="sourcePoint"/>
                    </mxGeometry>
                </mxCell>
                <mxCell id="pC11YEMDaKkjjGAFoK7q-12" value="&amp;nbsp;Checkout procces&lt;br&gt;" style="rounded=0;whiteSpace=wrap;html=1;" vertex="1" parent="pC11YEMDaKkjjGAFoK7q-1">
                    <mxGeometry x="340" y="670" width="120" height="60" as="geometry"/>
                </mxCell>
                <mxCell id="pC11YEMDaKkjjGAFoK7q-13" style="edgeStyle=orthogonalEdgeStyle;rounded=0;orthogonalLoop=1;jettySize=auto;html=1;entryX=0.5;entryY=0;entryDx=0;entryDy=0;" edge="1" parent="pC11YEMDaKkjjGAFoK7q-1" source="pC11YEMDaKkjjGAFoK7q-14" target="pC11YEMDaKkjjGAFoK7q-3">
                    <mxGeometry relative="1" as="geometry"/>
                </mxCell>
                <mxCell id="pC11YEMDaKkjjGAFoK7q-14" value="Drop Category Menu" style="whiteSpace=wrap;html=1;" vertex="1" parent="pC11YEMDaKkjjGAFoK7q-1">
                    <mxGeometry x="340" y="10" width="120" height="60" as="geometry"/>
                </mxCell>
                <mxCell id="pC11YEMDaKkjjGAFoK7q-15" value="Add item to favorites" style="rounded=1;whiteSpace=wrap;html=1;" vertex="1" parent="pC11YEMDaKkjjGAFoK7q-1">
                    <mxGeometry x="80" y="240" width="120" height="60" as="geometry"/>
                </mxCell>
                <mxCell id="pC11YEMDaKkjjGAFoK7q-16" style="edgeStyle=orthogonalEdgeStyle;rounded=0;orthogonalLoop=1;jettySize=auto;html=1;" edge="1" parent="pC11YEMDaKkjjGAFoK7q-1" source="pC11YEMDaKkjjGAFoK7q-17" target="pC11YEMDaKkjjGAFoK7q-12">
                    <mxGeometry relative="1" as="geometry"/>
                </mxCell>
                <mxCell id="pC11YEMDaKkjjGAFoK7q-17" value="review cart" style="rounded=1;whiteSpace=wrap;html=1;" vertex="1" parent="pC11YEMDaKkjjGAFoK7q-1">
                    <mxGeometry x="340" y="550" width="120" height="60" as="geometry"/>
                </mxCell>
            </root>
        </mxGraphModel>
    </diagram>
    <diagram id="XrddbYW1QAn4hW_dJIXY" name="Payment Process">
        <mxGraphModel dx="521" dy="552" grid="1" gridSize="10" guides="1" tooltips="1" connect="1" arrows="1" fold="1" page="1" pageScale="1" pageWidth="850" pageHeight="1100" math="0" shadow="0">
            <root>
                <mxCell id="ULTrgqGYxIr7vQwbx6kE-0"/>
                <mxCell id="ULTrgqGYxIr7vQwbx6kE-1" parent="ULTrgqGYxIr7vQwbx6kE-0"/>
                <mxCell id="ULTrgqGYxIr7vQwbx6kE-2" style="edgeStyle=orthogonalEdgeStyle;rounded=0;orthogonalLoop=1;jettySize=auto;html=1;entryX=0.5;entryY=0;entryDx=0;entryDy=0;" edge="1" parent="ULTrgqGYxIr7vQwbx6kE-1" source="ULTrgqGYxIr7vQwbx6kE-3" target="ULTrgqGYxIr7vQwbx6kE-14">
                    <mxGeometry relative="1" as="geometry">
                        <Array as="points">
                            <mxPoint x="412" y="110"/>
                            <mxPoint x="412" y="110"/>
                        </Array>
                    </mxGeometry>
                </mxCell>
                <mxCell id="ULTrgqGYxIr7vQwbx6kE-3" value="Checkout process" style="rounded=0;whiteSpace=wrap;html=1;" vertex="1" parent="ULTrgqGYxIr7vQwbx6kE-1">
                    <mxGeometry x="354" y="40" width="120" height="60" as="geometry"/>
                </mxCell>
                <mxCell id="ULTrgqGYxIr7vQwbx6kE-4" style="edgeStyle=orthogonalEdgeStyle;rounded=0;orthogonalLoop=1;jettySize=auto;html=1;entryX=0.5;entryY=0;entryDx=0;entryDy=0;" edge="1" parent="ULTrgqGYxIr7vQwbx6kE-1" source="ULTrgqGYxIr7vQwbx6kE-5" target="ULTrgqGYxIr7vQwbx6kE-8">
                    <mxGeometry relative="1" as="geometry">
                        <Array as="points">
                            <mxPoint x="416" y="820"/>
                            <mxPoint x="416" y="820"/>
                        </Array>
                    </mxGeometry>
                </mxCell>
                <mxCell id="ULTrgqGYxIr7vQwbx6kE-5" value="Card payment&lt;br&gt;" style="rounded=1;whiteSpace=wrap;html=1;" vertex="1" parent="ULTrgqGYxIr7vQwbx6kE-1">
                    <mxGeometry x="354" y="740" width="120" height="60" as="geometry"/>
                </mxCell>
                <mxCell id="ULTrgqGYxIr7vQwbx6kE-6" style="edgeStyle=orthogonalEdgeStyle;rounded=0;orthogonalLoop=1;jettySize=auto;html=1;entryX=0.5;entryY=0;entryDx=0;entryDy=0;" edge="1" parent="ULTrgqGYxIr7vQwbx6kE-1" source="ULTrgqGYxIr7vQwbx6kE-8" target="ULTrgqGYxIr7vQwbx6kE-11">
                    <mxGeometry relative="1" as="geometry"/>
                </mxCell>
                <mxCell id="ULTrgqGYxIr7vQwbx6kE-7" style="edgeStyle=orthogonalEdgeStyle;rounded=0;orthogonalLoop=1;jettySize=auto;html=1;entryX=0;entryY=0.5;entryDx=0;entryDy=0;" edge="1" parent="ULTrgqGYxIr7vQwbx6kE-1" source="ULTrgqGYxIr7vQwbx6kE-8" target="ULTrgqGYxIr7vQwbx6kE-5">
                    <mxGeometry relative="1" as="geometry">
                        <mxPoint x="240" y="770" as="targetPoint"/>
                        <Array as="points">
                            <mxPoint x="210" y="910"/>
                            <mxPoint x="210" y="770"/>
                        </Array>
                    </mxGeometry>
                </mxCell>
                <mxCell id="ULTrgqGYxIr7vQwbx6kE-8" value="Is card payment &lt;br&gt;valid?" style="shape=parallelogram;perimeter=parallelogramPerimeter;whiteSpace=wrap;html=1;fixedSize=1;" vertex="1" parent="ULTrgqGYxIr7vQwbx6kE-1">
                    <mxGeometry x="354" y="880" width="124" height="60" as="geometry"/>
                </mxCell>
                <mxCell id="ULTrgqGYxIr7vQwbx6kE-9" style="edgeStyle=orthogonalEdgeStyle;rounded=0;orthogonalLoop=1;jettySize=auto;html=1;exitX=0.5;exitY=1;exitDx=0;exitDy=0;" edge="1" parent="ULTrgqGYxIr7vQwbx6kE-1">
                    <mxGeometry relative="1" as="geometry">
                        <mxPoint x="245" y="480" as="sourcePoint"/>
                        <mxPoint x="245" y="480" as="targetPoint"/>
                    </mxGeometry>
                </mxCell>
                <mxCell id="ULTrgqGYxIr7vQwbx6kE-10" style="edgeStyle=orthogonalEdgeStyle;rounded=0;orthogonalLoop=1;jettySize=auto;html=1;" edge="1" parent="ULTrgqGYxIr7vQwbx6kE-1" source="ULTrgqGYxIr7vQwbx6kE-11" target="ULTrgqGYxIr7vQwbx6kE-40">
                    <mxGeometry relative="1" as="geometry"/>
                </mxCell>
                <mxCell id="ULTrgqGYxIr7vQwbx6kE-11" value="Place order&lt;br&gt;" style="whiteSpace=wrap;html=1;" vertex="1" parent="ULTrgqGYxIr7vQwbx6kE-1">
                    <mxGeometry x="550" y="1010" width="120" height="60" as="geometry"/>
                </mxCell>
                <mxCell id="ULTrgqGYxIr7vQwbx6kE-12" style="edgeStyle=orthogonalEdgeStyle;rounded=0;orthogonalLoop=1;jettySize=auto;html=1;entryX=0.5;entryY=0;entryDx=0;entryDy=0;" edge="1" parent="ULTrgqGYxIr7vQwbx6kE-1" source="ULTrgqGYxIr7vQwbx6kE-14" target="ULTrgqGYxIr7vQwbx6kE-21">
                    <mxGeometry relative="1" as="geometry">
                        <mxPoint x="600" y="180" as="targetPoint"/>
                    </mxGeometry>
                </mxCell>
                <mxCell id="ULTrgqGYxIr7vQwbx6kE-13" style="edgeStyle=orthogonalEdgeStyle;rounded=0;orthogonalLoop=1;jettySize=auto;html=1;" edge="1" parent="ULTrgqGYxIr7vQwbx6kE-1" source="ULTrgqGYxIr7vQwbx6kE-14" target="ULTrgqGYxIr7vQwbx6kE-17">
                    <mxGeometry relative="1" as="geometry">
                        <mxPoint x="240" y="400" as="targetPoint"/>
                        <Array as="points">
                            <mxPoint x="220" y="180"/>
                            <mxPoint x="220" y="380"/>
                        </Array>
                    </mxGeometry>
                </mxCell>
                <mxCell id="ULTrgqGYxIr7vQwbx6kE-14" value="user or guest?" style="shape=parallelogram;perimeter=parallelogramPerimeter;whiteSpace=wrap;html=1;fixedSize=1;" vertex="1" parent="ULTrgqGYxIr7vQwbx6kE-1">
                    <mxGeometry x="350" y="150" width="124" height="60" as="geometry"/>
                </mxCell>
                <mxCell id="ULTrgqGYxIr7vQwbx6kE-15" value="guest&lt;br&gt;" style="text;html=1;strokeColor=none;fillColor=none;align=center;verticalAlign=middle;whiteSpace=wrap;rounded=0;" vertex="1" parent="ULTrgqGYxIr7vQwbx6kE-1">
                    <mxGeometry x="240" y="160" width="40" height="20" as="geometry"/>
                </mxCell>
                <mxCell id="ULTrgqGYxIr7vQwbx6kE-16" style="edgeStyle=orthogonalEdgeStyle;rounded=0;orthogonalLoop=1;jettySize=auto;html=1;" edge="1" parent="ULTrgqGYxIr7vQwbx6kE-1" source="ULTrgqGYxIr7vQwbx6kE-17">
                    <mxGeometry relative="1" as="geometry">
                        <mxPoint x="400" y="490" as="targetPoint"/>
                    </mxGeometry>
                </mxCell>
                <mxCell id="ULTrgqGYxIr7vQwbx6kE-17" value="fill shiping address" style="rounded=1;whiteSpace=wrap;html=1;" vertex="1" parent="ULTrgqGYxIr7vQwbx6kE-1">
                    <mxGeometry x="340" y="350" width="120" height="60" as="geometry"/>
                </mxCell>
                <mxCell id="ULTrgqGYxIr7vQwbx6kE-18" value="user" style="text;html=1;strokeColor=none;fillColor=none;align=center;verticalAlign=middle;whiteSpace=wrap;rounded=0;" vertex="1" parent="ULTrgqGYxIr7vQwbx6kE-1">
                    <mxGeometry x="520" y="160" width="40" height="20" as="geometry"/>
                </mxCell>
                <mxCell id="ULTrgqGYxIr7vQwbx6kE-19" style="edgeStyle=orthogonalEdgeStyle;rounded=0;orthogonalLoop=1;jettySize=auto;html=1;" edge="1" parent="ULTrgqGYxIr7vQwbx6kE-1" source="ULTrgqGYxIr7vQwbx6kE-21" target="ULTrgqGYxIr7vQwbx6kE-17">
                    <mxGeometry relative="1" as="geometry">
                        <mxPoint x="360" y="270" as="targetPoint"/>
                    </mxGeometry>
                </mxCell>
                <mxCell id="ULTrgqGYxIr7vQwbx6kE-20" style="edgeStyle=orthogonalEdgeStyle;rounded=0;orthogonalLoop=1;jettySize=auto;html=1;entryX=0.5;entryY=0;entryDx=0;entryDy=0;" edge="1" parent="ULTrgqGYxIr7vQwbx6kE-1" source="ULTrgqGYxIr7vQwbx6kE-21" target="ULTrgqGYxIr7vQwbx6kE-37">
                    <mxGeometry relative="1" as="geometry">
                        <mxPoint x="760" y="270" as="targetPoint"/>
                    </mxGeometry>
                </mxCell>
                <mxCell id="ULTrgqGYxIr7vQwbx6kE-21" value="first time buying?" style="shape=parallelogram;perimeter=parallelogramPerimeter;whiteSpace=wrap;html=1;fixedSize=1;" vertex="1" parent="ULTrgqGYxIr7vQwbx6kE-1">
                    <mxGeometry x="540" y="240" width="120" height="60" as="geometry"/>
                </mxCell>
                <mxCell id="ULTrgqGYxIr7vQwbx6kE-22" value="no&lt;br&gt;" style="text;html=1;strokeColor=none;fillColor=none;align=center;verticalAlign=middle;whiteSpace=wrap;rounded=0;" vertex="1" parent="ULTrgqGYxIr7vQwbx6kE-1">
                    <mxGeometry x="680" y="250" width="40" height="20" as="geometry"/>
                </mxCell>
                <mxCell id="ULTrgqGYxIr7vQwbx6kE-23" value="Yes" style="text;html=1;align=center;verticalAlign=middle;resizable=0;points=[];autosize=1;" vertex="1" parent="ULTrgqGYxIr7vQwbx6kE-1">
                    <mxGeometry x="434" y="250" width="40" height="20" as="geometry"/>
                </mxCell>
                <mxCell id="ULTrgqGYxIr7vQwbx6kE-24" style="edgeStyle=orthogonalEdgeStyle;rounded=0;orthogonalLoop=1;jettySize=auto;html=1;" edge="1" parent="ULTrgqGYxIr7vQwbx6kE-1" source="ULTrgqGYxIr7vQwbx6kE-26">
                    <mxGeometry relative="1" as="geometry">
                        <mxPoint x="600" y="580" as="targetPoint"/>
                    </mxGeometry>
                </mxCell>
                <mxCell id="ULTrgqGYxIr7vQwbx6kE-25" style="edgeStyle=orthogonalEdgeStyle;rounded=0;orthogonalLoop=1;jettySize=auto;html=1;" edge="1" parent="ULTrgqGYxIr7vQwbx6kE-1" source="ULTrgqGYxIr7vQwbx6kE-26" target="ULTrgqGYxIr7vQwbx6kE-32">
                    <mxGeometry relative="1" as="geometry">
                        <mxPoint x="220" y="520" as="targetPoint"/>
                    </mxGeometry>
                </mxCell>
                <mxCell id="ULTrgqGYxIr7vQwbx6kE-26" value="guest or user?" style="shape=parallelogram;perimeter=parallelogramPerimeter;whiteSpace=wrap;html=1;fixedSize=1;" vertex="1" parent="ULTrgqGYxIr7vQwbx6kE-1">
                    <mxGeometry x="340" y="490" width="120" height="60" as="geometry"/>
                </mxCell>
                <mxCell id="ULTrgqGYxIr7vQwbx6kE-27" value="User" style="text;html=1;strokeColor=none;fillColor=none;align=center;verticalAlign=middle;whiteSpace=wrap;rounded=0;" vertex="1" parent="ULTrgqGYxIr7vQwbx6kE-1">
                    <mxGeometry x="480" y="500" width="40" height="20" as="geometry"/>
                </mxCell>
                <mxCell id="ULTrgqGYxIr7vQwbx6kE-28" style="edgeStyle=orthogonalEdgeStyle;rounded=0;orthogonalLoop=1;jettySize=auto;html=1;entryX=0.5;entryY=0;entryDx=0;entryDy=0;" edge="1" parent="ULTrgqGYxIr7vQwbx6kE-1" source="ULTrgqGYxIr7vQwbx6kE-29" target="ULTrgqGYxIr7vQwbx6kE-5">
                    <mxGeometry relative="1" as="geometry"/>
                </mxCell>
                <mxCell id="ULTrgqGYxIr7vQwbx6kE-29" value="save user's address&amp;nbsp;&lt;br&gt;" style="rounded=0;whiteSpace=wrap;html=1;" vertex="1" parent="ULTrgqGYxIr7vQwbx6kE-1">
                    <mxGeometry x="540" y="585" width="120" height="60" as="geometry"/>
                </mxCell>
                <mxCell id="ULTrgqGYxIr7vQwbx6kE-30" value="Guest" style="text;html=1;strokeColor=none;fillColor=none;align=center;verticalAlign=middle;whiteSpace=wrap;rounded=0;" vertex="1" parent="ULTrgqGYxIr7vQwbx6kE-1">
                    <mxGeometry x="270" y="500" width="40" height="20" as="geometry"/>
                </mxCell>
                <mxCell id="ULTrgqGYxIr7vQwbx6kE-31" style="edgeStyle=orthogonalEdgeStyle;rounded=0;orthogonalLoop=1;jettySize=auto;html=1;" edge="1" parent="ULTrgqGYxIr7vQwbx6kE-1" source="ULTrgqGYxIr7vQwbx6kE-32" target="ULTrgqGYxIr7vQwbx6kE-5">
                    <mxGeometry relative="1" as="geometry"/>
                </mxCell>
                <mxCell id="ULTrgqGYxIr7vQwbx6kE-32" value="don't save address" style="rounded=0;whiteSpace=wrap;html=1;" vertex="1" parent="ULTrgqGYxIr7vQwbx6kE-1">
                    <mxGeometry x="180" y="585" width="120" height="60" as="geometry"/>
                </mxCell>
                <mxCell id="ULTrgqGYxIr7vQwbx6kE-33" value="No" style="text;html=1;strokeColor=none;fillColor=none;align=center;verticalAlign=middle;whiteSpace=wrap;rounded=0;" vertex="1" parent="ULTrgqGYxIr7vQwbx6kE-1">
                    <mxGeometry x="250" y="890" width="40" height="20" as="geometry"/>
                </mxCell>
                <mxCell id="ULTrgqGYxIr7vQwbx6kE-34" value="Yes" style="text;html=1;strokeColor=none;fillColor=none;align=center;verticalAlign=middle;whiteSpace=wrap;rounded=0;" vertex="1" parent="ULTrgqGYxIr7vQwbx6kE-1">
                    <mxGeometry x="540" y="890" width="40" height="20" as="geometry"/>
                </mxCell>
                <mxCell id="ULTrgqGYxIr7vQwbx6kE-35" style="edgeStyle=orthogonalEdgeStyle;rounded=0;orthogonalLoop=1;jettySize=auto;html=1;entryX=1;entryY=0.5;entryDx=0;entryDy=0;" edge="1" parent="ULTrgqGYxIr7vQwbx6kE-1" source="ULTrgqGYxIr7vQwbx6kE-37" target="ULTrgqGYxIr7vQwbx6kE-5">
                    <mxGeometry relative="1" as="geometry">
                        <mxPoint x="760" y="770" as="targetPoint"/>
                        <Array as="points">
                            <mxPoint x="760" y="770"/>
                        </Array>
                    </mxGeometry>
                </mxCell>
                <mxCell id="ULTrgqGYxIr7vQwbx6kE-36" style="edgeStyle=orthogonalEdgeStyle;rounded=0;orthogonalLoop=1;jettySize=auto;html=1;entryX=1;entryY=0.5;entryDx=0;entryDy=0;" edge="1" parent="ULTrgqGYxIr7vQwbx6kE-1" source="ULTrgqGYxIr7vQwbx6kE-37" target="ULTrgqGYxIr7vQwbx6kE-17">
                    <mxGeometry relative="1" as="geometry"/>
                </mxCell>
                <mxCell id="ULTrgqGYxIr7vQwbx6kE-37" value="is this the correct&amp;nbsp;&amp;nbsp;&lt;br&gt;address?" style="shape=parallelogram;perimeter=parallelogramPerimeter;whiteSpace=wrap;html=1;fixedSize=1;" vertex="1" parent="ULTrgqGYxIr7vQwbx6kE-1">
                    <mxGeometry x="690" y="350" width="130" height="60" as="geometry"/>
                </mxCell>
                <mxCell id="ULTrgqGYxIr7vQwbx6kE-38" value="No" style="text;html=1;strokeColor=none;fillColor=none;align=center;verticalAlign=middle;whiteSpace=wrap;rounded=0;" vertex="1" parent="ULTrgqGYxIr7vQwbx6kE-1">
                    <mxGeometry x="560" y="360" width="40" height="20" as="geometry"/>
                </mxCell>
                <mxCell id="ULTrgqGYxIr7vQwbx6kE-39" value="Yes" style="text;html=1;strokeColor=none;fillColor=none;align=center;verticalAlign=middle;whiteSpace=wrap;rounded=0;" vertex="1" parent="ULTrgqGYxIr7vQwbx6kE-1">
                    <mxGeometry x="720" y="530" width="40" height="20" as="geometry"/>
                </mxCell>
                <mxCell id="ULTrgqGYxIr7vQwbx6kE-40" value="Homepage" style="rhombus;whiteSpace=wrap;html=1;" vertex="1" parent="ULTrgqGYxIr7vQwbx6kE-1">
                    <mxGeometry x="570" y="1130" width="80" height="80" as="geometry"/>
                </mxCell>
            </root>
        </mxGraphModel>
    </diagram>
</mxfile>